HIERARCHY
ROOT Hips
{
  OFFSET 5.84602e-005 68.8428 3.50346
  CHANNELS 6 Xposition Yposition Zposition Zrotation Xrotation Yrotation
  JOINT Spine
  {
    OFFSET 0 8.597 -4.6522
    CHANNELS 3 Zrotation Xrotation Yrotation
    JOINT Spine1
    {
      OFFSET 0 7.8454 0.4098
      CHANNELS 3 Zrotation Xrotation Yrotation
      JOINT Spine2
      {
        OFFSET 0 9.7078 -2.1609
        CHANNELS 3 Zrotation Xrotation Yrotation
        JOINT Neck
        {
          OFFSET 0 21.8761 -0.4549
          CHANNELS 3 Zrotation Xrotation Yrotation
          JOINT Head
          {
            OFFSET 0 12.3537 3.3602
            CHANNELS 3 Zrotation Xrotation Yrotation
            End Site
            {
              OFFSET 0.0001 18.9506 0.5657
            }
          }
        }
        JOINT LeftShoulder
        {
          OFFSET 2.2086 21.1115 7.2329
          CHANNELS 3 Zrotation Xrotation Yrotation
          JOINT LeftArm
          {
            OFFSET 13.1193 3.0282 -4.8998
            CHANNELS 3 Zrotation Xrotation Yrotation
            JOINT LeftForeArm
            {
              OFFSET 27.4081 -0.0973053 -0.2375
              CHANNELS 3 Zrotation Xrotation Yrotation
              JOINT LeftHand
              {
                OFFSET 22.8641 0.0662994 -0.1369
                CHANNELS 3 Zrotation Xrotation Yrotation
                JOINT LeftHandIndex1
                {
                  OFFSET 8.8614 0.775009 2.4612
                  CHANNELS 3 Zrotation Xrotation Yrotation
                  JOINT LeftHandIndex2
                  {
                    OFFSET 3.3146 -0.808304 0.5841
                    CHANNELS 3 Zrotation Xrotation Yrotation
                    JOINT LeftHandIndex3
                    {
                      OFFSET 2.2628 -0.552002 0.3989
                      CHANNELS 3 Zrotation Xrotation Yrotation
                      End Site
                      {
                        OFFSET 1.6102 -0.4807 0.2612
                      }
                    }
                  }
                }
                JOINT LeftHandMiddle1
                {
                  OFFSET 8.9937 0.895004 0.2143
                  CHANNELS 3 Zrotation Xrotation Yrotation
                  JOINT LeftHandMiddle2
                  {
                    OFFSET 4.0984 0.0113983 -0.0242
                    CHANNELS 3 Zrotation Xrotation Yrotation
                    JOINT LeftHandMiddle3
                    {
                      OFFSET 2.2716 0.00689697 -0.0138001
                      CHANNELS 3 Zrotation Xrotation Yrotation
                      End Site
                      {
                        OFFSET 2.0404 -0.1441 0.0027
                      }
                    }
                  }
                }
                JOINT LeftHandRing1
                {
                  OFFSET 8.5234 0.597198 -2.0164
                  CHANNELS 3 Zrotation Xrotation Yrotation
                  JOINT LeftHandRing2
                  {
                    OFFSET 3.7188 -0.188293 -0.2328
                    CHANNELS 3 Zrotation Xrotation Yrotation
                    JOINT LeftHandRing3
                    {
                      OFFSET 2.1191 -0.106598 -0.1332
                      CHANNELS 3 Zrotation Xrotation Yrotation
                      End Site
                      {
                        OFFSET 1.8737 -0.2304 -0.0886
                      }
                    }
                  }
                }
                JOINT LeftHandPinky1
                {
                  OFFSET 7.9094 -0.601089 -3.4825
                  CHANNELS 3 Zrotation Xrotation Yrotation
                  JOINT LeftHandPinky2
                  {
                    OFFSET 2.2874 -0.477005 -0.6314
                    CHANNELS 3 Zrotation Xrotation Yrotation
                    JOINT LeftHandPinky3
                    {
                      OFFSET 1.6774 -0.349396 -0.4633
                      CHANNELS 3 Zrotation Xrotation Yrotation
                      End Site
                      {
                        OFFSET 1.4888 -0.4091 -0.3416
                      }
                    }
                  }
                }
                JOINT LeftHandThumb1
                {
                  OFFSET 1.833 -1.3875 1.3896
                  CHANNELS 3 Zrotation Xrotation Yrotation
                  JOINT LeftHandThumb2
                  {
                    OFFSET 3.4129 -1.121 2.5732
                    CHANNELS 3 Zrotation Xrotation Yrotation
                    JOINT LeftHandThumb3
                    {
                      OFFSET 2.2474 -0.804199 1.6192
                      CHANNELS 3 Zrotation Xrotation Yrotation
                      End Site
                      {
                        OFFSET 1.6527 -0.5689 1.1317
                      }
                    }
                  }
                }
              }
            }
          }
        }
        JOINT RightShoulder
        {
          OFFSET -2.2086 21.1115 7.2329
          CHANNELS 3 Zrotation Xrotation Yrotation
          JOINT RightArm
          {
            OFFSET -13.1216 3.0287 -4.9007
            CHANNELS 3 Zrotation Xrotation Yrotation
            JOINT RightForeArm
            {
              OFFSET -27.4081 -0.0973053 -0.2375
              CHANNELS 3 Zrotation Xrotation Yrotation
              JOINT RightHand
              {
                OFFSET -22.8641 0.0664063 -0.1369
                CHANNELS 3 Zrotation Xrotation Yrotation
                JOINT RightHandIndex1
                {
                  OFFSET -8.8614 0.774994 2.4612
                  CHANNELS 3 Zrotation Xrotation Yrotation
                  JOINT RightHandIndex2
                  {
                    OFFSET -3.3146 -0.808304 0.5841
                    CHANNELS 3 Zrotation Xrotation Yrotation
                    JOINT RightHandIndex3
                    {
                      OFFSET -2.2628 -0.552002 0.3989
                      CHANNELS 3 Zrotation Xrotation Yrotation
                      End Site
                      {
                        OFFSET -1.6102 -0.4807 0.2612
                      }
                    }
                  }
                }
                JOINT RightHandMiddle1
                {
                  OFFSET -8.9937 0.894989 0.2143
                  CHANNELS 3 Zrotation Xrotation Yrotation
                  JOINT RightHandMiddle2
                  {
                    OFFSET -4.0984 0.0113983 -0.0242
                    CHANNELS 3 Zrotation Xrotation Yrotation
                    JOINT RightHandMiddle3
                    {
                      OFFSET -2.2716 0.00691223 -0.0138001
                      CHANNELS 3 Zrotation Xrotation Yrotation
                      End Site
                      {
                        OFFSET -2.0404 -0.1441 0.0027
                      }
                    }
                  }
                }
                JOINT RightHandRing1
                {
                  OFFSET -8.5234 0.597198 -2.0164
                  CHANNELS 3 Zrotation Xrotation Yrotation
                  JOINT RightHandRing2
                  {
                    OFFSET -3.7188 -0.188309 -0.2328
                    CHANNELS 3 Zrotation Xrotation Yrotation
                    JOINT RightHandRing3
                    {
                      OFFSET -2.1191 -0.106598 -0.1332
                      CHANNELS 3 Zrotation Xrotation Yrotation
                      End Site
                      {
                        OFFSET -1.8737 -0.2304 -0.0886
                      }
                    }
                  }
                }
                JOINT RightHandPinky1
                {
                  OFFSET -7.9094 -0.601105 -3.4825
                  CHANNELS 3 Zrotation Xrotation Yrotation
                  JOINT RightHandPinky2
                  {
                    OFFSET -2.2874 -0.477005 -0.6314
                    CHANNELS 3 Zrotation Xrotation Yrotation
                    JOINT RightHandPinky3
                    {
                      OFFSET -1.6774 -0.349396 -0.4633
                      CHANNELS 3 Zrotation Xrotation Yrotation
                      End Site
                      {
                        OFFSET -1.4888 -0.4091 -0.3416
                      }
                    }
                  }
                }
                JOINT RightHandThumb1
                {
                  OFFSET -1.833 -1.38751 1.3896
                  CHANNELS 3 Zrotation Xrotation Yrotation
                  JOINT RightHandThumb2
                  {
                    OFFSET -3.41299 -1.12099 2.5732
                    CHANNELS 3 Zrotation Xrotation Yrotation
                    JOINT RightHandThumb3
                    {
                      OFFSET -2.24741 -0.804108 1.6192
                      CHANNELS 3 Zrotation Xrotation Yrotation
                      End Site
                      {
                        OFFSET -1.6527 -0.5689 1.1317
                      }
                    }
                  }
                }
              }
            }
          }
        }
      }
    }
  }
  JOINT RightUpLeg
  {
    OFFSET -9.1966 3.8861 -0.7581
    CHANNELS 3 Zrotation Xrotation Yrotation
    JOINT RightLeg
    {
      OFFSET -0.7359 -41.0265 0
      CHANNELS 3 Zrotation Xrotation Yrotation
      JOINT RightFoot
      {
        OFFSET 0 -40.2855 0
        CHANNELS 3 Zrotation Xrotation Yrotation
        JOINT RightToeBase
        {
          OFFSET 0 -5.6122 11.7359
          CHANNELS 3 Zrotation Xrotation Yrotation
          End Site
          {
            OFFSET 0 0 7.8731
          }
        }
      }
    }
  }
  JOINT LeftUpLeg
  {
    OFFSET 9.1965 3.8864 -0.7581
    CHANNELS 3 Zrotation Xrotation Yrotation
    JOINT LeftLeg
    {
      OFFSET 0.7359 -41.0268 0
      CHANNELS 3 Zrotation Xrotation Yrotation
      JOINT LeftFoot
      {
        OFFSET 0 -40.2855 0
        CHANNELS 3 Zrotation Xrotation Yrotation
        JOINT LeftToeBase
        {
          OFFSET 0 -5.6122 11.7359
          CHANNELS 3 Zrotation Xrotation Yrotation
          End Site
          {
            OFFSET 0 0 7.8731
          }
        }
      }
    }
  }
}
MOTION
Frames:	4
Frame Time:	0.0333333
5.84602e-005 68.8428 3.50346 0 0 -0 0 0 -0 0 0 -0 0 0 -0 0 0 -0 0 0 -0 0 0 -0 0 0 -0 0 0 -0 0 0 -0 0 0 -0 0 0 -0 0 0 -0 0 0 -0 -0.0146107 -8.87603e-005 -2.63497e-007 2.99804e-018 -2.42657e-020 -1.42182e-022 0 0 -0 -0.0187562 -0.001176 5.858e-005 5.06224e-018 3.88251e-019 1.21329e-020 0 0 -0 -0.012269 -0.00324817 0.000675346 -1.74678e-018 3.88251e-019 -0 0 0 -0 0 0 -0 0 0 -0 0 0 -0 0 0 -0 0 0 -0 0 0 -0 0 0 -0 0 0 -0 0 0 -0 0 0 -0 0.0149955 -9.10982e-005 2.64101e-007 -9.69331e-018 1.21329e-020 -4.7394e-023 0 0 -0 0.0189956 -0.00119102 -5.96516e-005 -5.41541e-019 0 2.42657e-020 0 0 -0 0.0122698 -0.00324857 -0.000673756 -2.00796e-019 0 -1.94126e-019 0 0 -0 0 0 -0 0 0 -0 3.39842 1.33031 -0.0637918 -5.65207e-008 0.834868 -0.000436188 -3.39935 -2.16518 -0.0642563 -8.89002e-024 -1.18485e-023 -1.48106e-024 -3.39844 1.35642 0.0640283 -3.18788e-007 0.782166 -0.000588827 3.39931 -2.13858 0.0634662 1.1399e-023 0 -0 
-2.16944 23.6265 49.7394 -43.5783 -33.0364 119.809 0.0203078 -0.371942 0.0311148 0.040775 -0.743814 0.062355 0.0407919 -0.743824 0.0623575 3.068e-005 -11.1748 -3.14229e-005 -0.0426439 -16.7255 -0.0176031 20.81 11.7004 -11.5545 -29.7276 -76.2465 -42.9471 -22.0657 -10.7474 -65.0821 -3.54802 8.47867 -20.1236 1.66276e-006 -1.59528e-007 -2.41189e-007 1.66276e-006 -1.59528e-007 -2.41189e-007 1.66276e-006 -1.59528e-007 -2.41189e-007 1.66276e-006 -1.59528e-007 -2.41189e-007 -0.0146893 -8.83717e-005 -9.37783e-007 1.66279e-006 -1.59497e-007 -2.4121e-007 1.66276e-006 -1.59528e-007 -2.41189e-007 -0.0188747 -0.00118259 5.77931e-005 1.6628e-006 -1.59487e-007 -2.41232e-007 1.66276e-006 -1.59528e-007 -2.41189e-007 -0.0122864 -0.00325255 0.000677154 1.66278e-006 -1.59505e-007 -2.41254e-007 1.66276e-006 -1.59528e-007 -2.41189e-007 1.66276e-006 -1.59528e-007 -2.41189e-007 1.66276e-006 -1.59528e-007 -2.41189e-007 -20.8263 11.7046 11.5399 29.7075 -76.2465 42.9379 22.0382 -10.8707 65.097 3.54973 8.46653 20.1047 -1.09232e-006 2.4816e-007 -4.07593e-006 -2.47112e-007 1.92033e-007 6.74094e-008 -5.10493e-007 -2.3535e-008 -1.15086e-006 -1.09232e-006 2.4816e-007 -4.07593e-006 0.0150012 -9.24659e-005 -2.47021e-006 -1.09306e-006 2.47631e-007 -4.07596e-006 -1.09232e-006 2.4816e-007 -4.07593e-006 0.0191114 -0.0011984 -7.45709e-005 -1.0933e-006 2.47539e-007 -4.07595e-006 -1.09232e-006 2.4816e-007 -4.07593e-006 0.0123167 -0.0032597 -0.000678464 -1.09304e-006 2.47876e-007 -4.07589e-006 -1.09232e-006 2.4816e-007 -4.07593e-006 -2.47112e-007 1.92033e-007 6.74094e-008 -5.10493e-007 -2.3535e-008 -1.15086e-006 -65.8608 -39.2726 -61.9895 172.389 78.6118 -176.14 -6.69625 8.61417 -1.87963 -2.68171e-006 -5.84267e-006 -2.32493e-006 65.8509 -39.2902 61.9743 -172.259 78.6099 176.015 6.68225 8.61847 1.89081 1.86775e-006 3.92946e-008 2.48823e-006 
1.25035 5.26213 74.3724 43.3492 -70.9565 -135.039 0.0412565 -0.615497 0.0459298 0.0830611 -1.23101 0.0922912 0.0830601 -1.23102 0.092292 -2.91604e-005 -15.9191 4.26825e-006 -0.0649494 -23.384 -0.0256289 31.8926 16.8964 -17.6003 -136.309 -61.1382 -151.135 -35.4404 0.706934 -90.9903 -3.30348 11.6707 -29.6237 -2.91028e-007 -1.51526e-006 6.88539e-007 3.32155e-006 9.33207e-007 -1.18216e-006 -2.91028e-007 -1.51526e-006 6.88539e-007 -2.91028e-007 -1.51526e-006 6.88539e-007 -0.0145953 -8.68683e-005 -2.78356e-007 -2.90996e-007 -1.51535e-006 6.88346e-007 -2.91028e-007 -1.51526e-006 6.88539e-007 -0.018735 -0.00117105 5.6256e-005 -2.90981e-007 -1.51537e-006 6.88294e-007 -2.91028e-007 -1.51526e-006 6.88539e-007 -0.0122575 -0.00324236 0.00067577 -2.90991e-007 -1.51533e-006 6.88383e-007 -2.91028e-007 -1.51526e-006 6.88539e-007 3.32155e-006 9.33207e-007 -1.18216e-006 -2.91028e-007 -1.51526e-006 6.88539e-007 -31.9097 16.9044 17.5767 136.293 -61.1403 151.136 35.4386 0.685614 90.9476 3.311 11.6558 29.5973 9.14409e-015 6.36111e-015 -7.95139e-016 8.34896e-015 3.18055e-015 -4.77083e-015 8.74653e-015 6.36111e-015 -3.97569e-015 9.14409e-015 6.36111e-015 -7.95139e-016 0.015001 -9.2751e-005 2.77575e-007 1.55052e-014 0 -1.59028e-015 9.14409e-015 6.36111e-015 -7.95139e-016 0.0189815 -0.00118929 -6.15492e-005 -1.59028e-015 1.27222e-014 -7.95139e-016 9.14409e-015 6.36111e-015 -7.95139e-016 0.012263 -0.00324707 -0.000677496 1.74931e-014 3.18055e-015 -5.56597e-015 9.14409e-015 6.36111e-015 -7.95139e-016 8.34896e-015 3.18055e-015 -4.77083e-015 8.74653e-015 6.36111e-015 -3.97569e-015 -110.546 -29.9452 -94.6286 177.057 35.736 175.576 -6.98633 13.6461 -4.78559 2.53481e-006 1.13224e-006 -1.24587e-006 110.546 -29.9759 94.6244 -177.022 35.7373 -175.621 6.96249 13.6505 4.8025 -4.17448e-015 -3.18055e-015 -2.98177e-015 
-0.000494896 9.28257 69.1417 -0.00886773 -71.0095 179.991 0.0355482 -0.730999 0.0429562 0.0716534 -1.462 0.0863765 0.0716535 -1.46198 0.0863765 -1.80771e-006 -14.232 -3.28106e-006 -0.058864 -19.9747 -0.0212563 29.6011 16.4909 -17.249 -129.455 -68.4133 -144.099 -32.8835 -2.97296 -85.551 -3.6387 11.5766 -27.7857 1.59028e-015 6.36111e-015 -0 3.97569e-015 3.18055e-015 -3.18055e-015 1.59028e-015 9.54166e-015 -9.54166e-015 1.59028e-015 6.36111e-015 -0 -0.0146213 -8.76424e-005 -2.87106e-006 4.77083e-015 -3.18055e-015 3.18055e-015 1.59028e-015 6.36111e-015 -0 -0.0187316 -0.0011749 5.62764e-005 -2.38542e-015 0 -0 1.59028e-015 6.36111e-015 -0 -0.0122639 -0.00324508 0.0006788 6.36111e-015 -1.59028e-015 -6.36111e-015 1.59028e-015 6.36111e-015 -0 3.97569e-015 3.18055e-015 -3.18055e-015 1.59028e-015 9.54166e-015 -9.54166e-015 -29.6065 16.5001 17.2218 129.436 -68.4135 144.093 32.8785 -3.02124 85.5308 3.64598 11.5619 27.7657 -7.15625e-015 -1.59028e-015 -0 7.95139e-015 0 -0 5.56597e-015 -1.59028e-015 -0 -7.15625e-015 -1.59028e-015 -0 0.0149929 -9.20345e-005 -7.62486e-007 1.59028e-015 -3.18055e-015 -9.54166e-015 -7.15625e-015 -1.59028e-015 -0 0.0190112 -0.00119322 -5.94432e-005 -6.36111e-015 6.36111e-015 -3.18055e-015 -7.15625e-015 -1.59028e-015 -0 0.0122508 -0.00324368 -0.000675041 7.95139e-015 -1.59028e-015 -0 -7.15625e-015 -1.59028e-015 -0 7.95139e-015 0 -0 5.56597e-015 -1.59028e-015 -0 -101.37 -33.1892 -87.8803 176.746 45.1779 177.258 -7.17131 12.6546 -3.66555 -4.05537e-006 1.02703e-006 -1.65594e-006 101.368 -33.2158 87.8732 -176.704 45.1785 -177.305 7.15012 12.6593 3.68121 7.63994e-006 3.42053e-006 -5.77566e-007 
